{"title":"Mai.Dire.Grande.Fratello.Show.2009.1x04.DVB-TRip.MP3.iTA.XviD.fi","uid":5137945,"size":738566144,"categoryP":"video","categoryS":"tv_shows","magnet":"?xt=urn:btih:4df5986d1d0edbb2334d7c1d47fc7714169d154f&amp;dn=Mai.Dire.Grande.Fratello.Show.2009.1x04.DVB-TRip.MP3.iTA.XviD.fi&amp;tr=udp%3A%2F%2Ftracker.openbittorrent.com%3A80&amp;tr=udp%3A%2F%2Fopen.demonii.com%3A1337&amp;tr=udp%3A%2F%2Ftracker.coppersurfer.tk%3A6969&amp;tr=udp%3A%2F%2Fexodus.desync.com%3A6969","seeders":0,"leechers":1,"uploader":null,"files":1,"time":1256657051,"description":"Taken from http://forum.tntvillage.scambioetico.org/tntforum/index.php?showtopic=163698\n\n\n\nGeneral\nComplete name                    : C:Mai.Dire.Grande.Fratello.Show.2009.1x04.DVB-TRip.MP3.iTA.XviD.firefox.avi\nFormat                           : AVI\nFormat/Info                      : Audio Video Interleave\nFile size                        : 704 MiB\nDuration                         : 1h 26mn\nOverall bit rate                 : 1 133 Kbps\nDirector                         : Done with AutoMKV! 0.98.4 http://forum.doom9.org/showthread.php?t=140178\nWriting application              : VirtualDubMod 1.5.10.2 (build 2542/release)\nWriting library                  : VirtualDubMod build 2542/release\n\nVideo\nID                               : 0\nFormat                           : MPEG-4 Visual\nFormat profile                   : AdvancedSimple@L5\nFormat settings, BVOP            : Yes\nFormat settings, QPel            : No\nFormat settings, GMC             : No warppoints\nFormat settings, Matrix          : Custom\nMuxing mode                      : Packed bitstream\nCodec ID                         : XVID\nCodec ID/Hint                    : XviD\nDuration                         : 1h 26mn\nBit rate                         : 1 004 Kbps\nWidth                            : 640 pixels\nHeight                           : 488 pixels\nDisplay aspect ratio             : 4:3\nFrame rate                       : 25.000 fps\nResolution                       : 24 bits\nColorimetry                      : 4:2:0\nScan type                        : Progressive\nBits/(Pixel*Frame)               : 0.129\nStream size                      : 624 MiB (89%)\nWriting library                  : XviD 1.2.1 (UTC 2008-12-04)\n\nAudio\nID                               : 1\nFormat                           : MPEG Audio\nFormat version                   : Version 1\nFormat profile                   : Layer 3\nCodec ID                         : 55\nCodec ID/Hint                    : MP3\nDuration                         : 1h 26mn\nBit rate mode                    : Variable\nBit rate                         : 116 Kbps\nNominal bit rate                 : 128 Kbps\nChannel(s)                       : 2 channels\nSampling rate                    : 48.0 KHz\nResolution                       : 16 bits\nStream size                      : 72.3 MiB (10%)\nAlignment                        : Aligned on interleaves\nInterleave, duration             : 24 ms (0.60 video frame)\nInterleave, preload duration     : 521 ms\nWriting library                  : LAME3.98r\nEncoding settings                : -m j -V 4 -q 3 -lowpass 17 --abr 128\n\n","torrent":{"xt":"urn:btih:4df5986d1d0edbb2334d7c1d47fc7714169d154f","amp;dn":"Mai.Dire.Grande.Fratello.Show.2009.1x04.DVB-TRip.MP3.iTA.XviD.fi","amp;tr":["udp%3A%2F%2Ftracker.openbittorrent.com%3A80","udp%3A%2F%2Fopen.demonii.com%3A1337","udp%3A%2F%2Ftracker.coppersurfer.tk%3A6969","udp%3A%2F%2Fexodus.desync.com%3A6969"],"infoHash":"4df5986d1d0edbb2334d7c1d47fc7714169d154f","infoHashBuffer":{"type":"Buffer","data":[77,245,152,109,29,14,219,178,51,77,124,29,71,252,119,20,22,157,21,79]},"announce":[],"urlList":[]}}